<svg id="visual" viewBox="0 0 960 540" width="960" height="540" xmlns="http://www.w3.org/2000/svg" xmlns:xlink="http://www.w3.org/1999/xlink" version="1.1"><rect x="0" y="0" width="960" height="540" fill="#f4eded"></rect><path d="M0 376L22.8 375.7C45.7 375.3 91.3 374.7 137 373.8C182.7 373 228.3 372 274 384.2C319.7 396.3 365.3 421.7 411.2 419.5C457 417.3 503 387.7 548.8 377.8C594.7 368 640.3 378 686 383.8C731.7 389.7 777.3 391.3 823 398.3C868.7 405.3 914.3 417.7 937.2 423.8L960 430L960 541L937.2 541C914.3 541 868.7 541 823 541C777.3 541 731.7 541 686 541C640.3 541 594.7 541 548.8 541C503 541 457 541 411.2 541C365.3 541 319.7 541 274 541C228.3 541 182.7 541 137 541C91.3 541 45.7 541 22.8 541L0 541Z" fill="#19212D" stroke-linecap="round" stroke-linejoin="miter"></path></svg>